/* XPM */
static char *green32_xpm[] = {
"32 30 20 1",
" 	c None",
".	c #000000",
"+	c #002D00",
"@	c #003100",
"#	c #002000",
"$	c #00A200",
"%	c #00D200",
"&	c #00CB00",
"*	c #002E00",
"=	c #002C00",
"-	c #002200",
";	c #005C00",
">	c #00E100",
",	c #00FF00",
"'	c #00A300",
")	c #00D000",
"!	c #00C600",
"~	c #00D300",
"{	c #00F800",
"]	c #00FE00",
"                                ",
"                                ",
"                                ",
"                                ",
"          ......                ",
"          +@@@@+                ",
"      ...#$%&&%$#...            ",
"      *=-;>,,,,>;-=*            ",
"    .*')!~{,,,,{~!)'*.          ",
"    .=),,,,],,],,,,)=.          ",
"    .-!,,,,,,,,,,,,!-.          ",
"    #;~,,,,,,,,,,,,~;#          ",
"  .+$>{,,,,,,,,,,,,{>$+.        ",
"  .@%,,],,,,,,,,,,],,%@.        ",
"  .@&,,,,,,,,,,,,,,,,&@.        ",
"  .@&,,,,,,,,,,,,,,,,&@.        ",
"  .@%,,],,,,,,,,,,],,%@.        ",
"  .+$>{,,,,,,,,,,,,{>$+.        ",
"    #;~,,,,,,,,,,,,~;#          ",
"    .-!,,,,,,,,,,,,!-.          ",
"    .=),,,,],,],,,,)=.          ",
"    .*')!~{,,,,{~!)'*.          ",
"      *=-;>,,,,>;-=*            ",
"      ...#$%&&%$#...            ",
"          +@@@@+                ",
"          ......                ",
"                                ",
"                                ",
"                                ",
"                                "};
