/* XPM */
static const char *const red_xpm[] = {
/* columns rows colors chars-per-pixel */
"16 15 3 1",
". c Black",
"  c None",
"o c #FF0000",
/* pixels */
"                ",
"                ",
"     ...        ",
"   ..ooo..      ",
"  .ooooooo.     ",
"  .ooooooo.     ",
" .ooooooooo.    ",
" .ooooooooo.    ",
" .ooooooooo.    ",
"  .ooooooo.     ",
"  .ooooooo.     ",
"   ..ooo..      ",
"     ...        ",
"                ",
"                "
};