/* XPM */
static char *Acbel_large_xpm[] = {
"86 36 813 2",
"  	c #FF7E00",
". 	c #FF7B00",
"+ 	c #FE7C00",
"@ 	c #FD7600",
"# 	c #FD7B00",
"$ 	c #FC7E00",
"% 	c #FC8407",
"& 	c #FDF4E6",
"* 	c #FFFFFF",
"= 	c #FBAB4B",
"- 	c #FB7900",
"; 	c #FB7800",
"> 	c #FB7700",
", 	c #FA7800",
"' 	c #FA7600",
") 	c #FA7900",
"! 	c #F97400",
"~ 	c #F97600",
"{ 	c #F97900",
"] 	c #F87900",
"^ 	c #F87300",
"/ 	c #F87500",
"( 	c #F97800",
"_ 	c #F97700",
": 	c #F87D00",
"< 	c #F87A00",
"[ 	c #F77900",
"} 	c #EF7700",
"| 	c #181989",
"1 	c #0002AB",
"2 	c #0004AC",
"3 	c #0003AC",
"4 	c #0002AC",
"5 	c #0002AD",
"6 	c #0003AE",
"7 	c #0002AE",
"8 	c #0001AE",
"9 	c #0004AE",
"0 	c #0000AD",
"a 	c #0001AD",
"b 	c #0005AF",
"c 	c #0002AF",
"d 	c #0003AF",
"e 	c #0005B0",
"f 	c #0001AF",
"g 	c #0006B0",
"h 	c #000AB1",
"i 	c #0006B1",
"j 	c #0007B1",
"k 	c #0005B1",
"l 	c #0007B2",
"m 	c #0010B3",
"n 	c #001CB6",
"o 	c #FF7A00",
"p 	c #FE7900",
"q 	c #FD7700",
"r 	c #FC7300",
"s 	c #FC7900",
"t 	c #FBB355",
"u 	c #FDD4A4",
"v 	c #FB7400",
"w 	c #FA7400",
"x 	c #FA7000",
"y 	c #FA7200",
"z 	c #F96F00",
"A 	c #FA7500",
"B 	c #F97100",
"C 	c #F87200",
"D 	c #F97500",
"E 	c #FA6E00",
"F 	c #F97200",
"G 	c #F86F00",
"H 	c #F87100",
"I 	c #F77200",
"J 	c #EE7200",
"K 	c #181387",
"L 	c #0000A7",
"M 	c #0000A9",
"N 	c #0000AA",
"O 	c #0001AB",
"P 	c #0000AB",
"Q 	c #0001AC",
"R 	c #0000AC",
"S 	c #0001AA",
"T 	c #0000AE",
"U 	c #0003B0",
"V 	c #000FB2",
"W 	c #FF7F00",
"X 	c #FF7C00",
"Y 	c #FE7500",
"Z 	c #FE7800",
"` 	c #FD7400",
" .	c #FD7800",
"..	c #FC8000",
"+.	c #FDE4BA",
"@.	c #FFFBF6",
"#.	c #FB8613",
"$.	c #FB7500",
"%.	c #FB7300",
"&.	c #FB7600",
"*.	c #FA7100",
"=.	c #FA6D00",
"-.	c #F97300",
";.	c #FA7300",
">.	c #F67300",
",.	c #171388",
"'.	c #0000A8",
").	c #0001B0",
"!.	c #0004AF",
"~.	c #000EB2",
"{.	c #FD7500",
"].	c #FC7500",
"^.	c #FB9E24",
"/.	c #FFFEFC",
"(.	c #FCB46B",
"_.	c #FB7100",
":.	c #F96E00",
"<.	c #F97000",
"[.	c #F77300",
"}.	c #F66F00",
"|.	c #EC6D00",
"1.	c #130F89",
"2.	c #0001A6",
"3.	c #0001A9",
"4.	c #000DB2",
"5.	c #FE7700",
"6.	c #FE7600",
"7.	c #FD7200",
"8.	c #FD7C00",
"9.	c #FCC487",
"0.	c #FFF7EE",
"a.	c #FEEEDE",
"b.	c #FCE5C8",
"c.	c #FA6F00",
"d.	c #F96D00",
"e.	c #F98C16",
"f.	c #FA9432",
"g.	c #F99931",
"h.	c #F88C1F",
"i.	c #F87D01",
"j.	c #F77000",
"k.	c #F76F00",
"l.	c #F66C00",
"m.	c #EB6D00",
"n.	c #120E8A",
"o.	c #0000A6",
"p.	c #0009B0",
"q.	c #FC8309",
"r.	c #FEF5E9",
"s.	c #FBC893",
"t.	c #FBC17F",
"u.	c #FFFEFE",
"v.	c #FA912A",
"w.	c #FA9528",
"x.	c #FCD494",
"y.	c #FDF5E0",
"z.	c #FDFBF1",
"A.	c #FBDDAF",
"B.	c #F9A347",
"C.	c #F87600",
"D.	c #F67200",
"E.	c #EA6D00",
"F.	c #0E0D8E",
"G.	c #0000A5",
"H.	c #000BB1",
"I.	c #FE7400",
"J.	c #FD7A00",
"K.	c #FBB559",
"L.	c #FA9A36",
"M.	c #FA9A22",
"N.	c #FBC48E",
"O.	c #FA7700",
"P.	c #FAC777",
"Q.	c #FFFEFB",
"R.	c #FBD8AF",
"S.	c #F57E0D",
"T.	c #E96C00",
"U.	c #0F1291",
"V.	c #0007B0",
"W.	c #FE7D00",
"X.	c #FE7B00",
"Y.	c #FD7900",
"Z.	c #FDE3BE",
"`.	c #FDE6D3",
" +	c #FB8002",
".+	c #FB8500",
"++	c #FCE7CA",
"@+	c #FEF0E7",
"#+	c #F98109",
"$+	c #FABA64",
"%+	c #FFFFFE",
"&+	c #FBDCBA",
"*+	c #E77504",
"=+	c #0A108D",
"-+	c #0005AE",
";+	c #000FB1",
">+	c #FD9B2B",
",+	c #FDBC76",
"'+	c #FCB96D",
")+	c #FBA651",
"!+	c #F9921A",
"~+	c #FEFBF3",
"{+	c #FFFBF9",
"]+	c #FCBB81",
"^+	c #FA8F2E",
"/+	c #F9861B",
"(+	c #FBA248",
"_+	c #FEEED2",
":+	c #EAA456",
"<+	c #0A0D93",
"[+	c #0104A9",
"}+	c #0009AF",
"|+	c #FF7900",
"1+	c #FE7F00",
"2+	c #FEC88A",
"3+	c #FFFCFB",
"4+	c #FC8A1D",
"5+	c #FC7A00",
"6+	c #FB7C00",
"7+	c #FB8F1A",
"8+	c #FEFCFA",
"9+	c #FCDAB7",
"0+	c #FA7D00",
"a+	c #FBC983",
"b+	c #FA9E55",
"c+	c #F87400",
"d+	c #F9931C",
"e+	c #FFFAF4",
"f+	c #F0D6B9",
"g+	c #090D97",
"h+	c #0001A8",
"i+	c #000BAF",
"j+	c #FF7D00",
"k+	c #FE7A00",
"l+	c #FD8908",
"m+	c #FEFBEA",
"n+	c #FED9B6",
"o+	c #FC7F00",
"p+	c #FB7A00",
"q+	c #FB7D00",
"r+	c #FDE5C2",
"s+	c #FFFDFB",
"t+	c #F88F1E",
"u+	c #FA8000",
"v+	c #FDF1D1",
"w+	c #FEE1CB",
"x+	c #F97A00",
"y+	c #FCBB6E",
"z+	c #FDCB9A",
"A+	c #FDC99C",
"B+	c #FCCD9B",
"C+	c #EDBA84",
"D+	c #080C99",
"E+	c #0001A7",
"F+	c #0002A9",
"G+	c #0002AA",
"H+	c #0008AE",
"I+	c #FE8000",
"J+	c #FEB559",
"K+	c #FDA95B",
"L+	c #FCB96F",
"M+	c #FCBB7C",
"N+	c #FA7C00",
"O+	c #FA890F",
"P+	c #FFFDF9",
"Q+	c #FDC790",
"R+	c #F57600",
"S+	c #E76E00",
"T+	c #090C98",
"U+	c #0204AA",
"V+	c #0004AD",
"W+	c #000AAF",
"X+	c #FF7800",
"Y+	c #FEEBC0",
"Z+	c #FFFBF7",
"`+	c #FC9B28",
" @	c #FB8D18",
".@	c #FA9117",
"+@	c #FA9415",
"@@	c #FB8F15",
"#@	c #F9A32F",
"$@	c #FEFDFB",
"%@	c #FDEFD7",
"&@	c #FA8102",
"*@	c #F99222",
"=@	c #FFFFFD",
"-@	c #FCB97B",
";@	c #F76E00",
">@	c #E56D01",
",@	c #050998",
"'@	c #0005AC",
")@	c #000DB0",
"!@	c #FE971F",
"~@	c #FA9C3F",
"{@	c #FB9E32",
"]@	c #FCB36F",
"^@	c #FB7200",
"/@	c #F67000",
"(@	c #E76D01",
"_@	c #070A99",
":@	c #000FAF",
"<@	c #FECC85",
"[@	c #FCD29F",
"}@	c #FA7B00",
"|@	c #FA8E1A",
"1@	c #FFFEFD",
"2@	c #FDC48C",
"3@	c #F97D00",
"4@	c #E67701",
"5@	c #05119C",
"6@	c #0009AB",
"7@	c #0008AD",
"8@	c #0003AD",
"9@	c #0006AD",
"0@	c #000BB0",
"a@	c #FF8200",
"b@	c #FF8B05",
"c@	c #FFF7E4",
"d@	c #FFF8F1",
"e@	c #FB8711",
"f@	c #FB8102",
"g@	c #FFF8EA",
"h@	c #FEE3C3",
"i@	c #FDE9B2",
"j@	c #FEF6E3",
"k@	c #FEF5E3",
"l@	c #FEF8E3",
"m@	c #FAE2BB",
"n@	c #E3EBED",
"o@	c #E3EFF8",
"p@	c #E3EFF9",
"q@	c #E3EEF8",
"r@	c #E3ECF8",
"s@	c #E3EBF8",
"t@	c #E3EAF8",
"u@	c #D0DDF3",
"v@	c #AEBEE9",
"w@	c #7D89D9",
"x@	c #2A38C0",
"y@	c #0002B0",
"z@	c #0D0BB0",
"A@	c #C7CEEF",
"B@	c #C7D0F0",
"C@	c #C7CFEF",
"D@	c #6272D3",
"E@	c #0007AE",
"F@	c #FF8300",
"G@	c #FEB150",
"H@	c #FFD8B4",
"I@	c #FFAE6A",
"J@	c #FFB06A",
"K@	c #FFAD69",
"L@	c #FEB06A",
"M@	c #FFB06C",
"N@	c #FFAF6C",
"O@	c #FEAF6D",
"P@	c #FEB470",
"Q@	c #FEDDBC",
"R@	c #FCAE61",
"S@	c #FB7E00",
"T@	c #FDD7A0",
"U@	c #FCA241",
"V@	c #FC7800",
"W@	c #FC7B00",
"X@	c #FC7C00",
"Y@	c #FBB247",
"Z@	c #FBC584",
"`@	c #FFFDF4",
" #	c #FEFFFF",
".#	c #9EADE4",
"+#	c #0310B2",
"@#	c #171BB2",
"##	c #7E90DC",
"$#	c #0007AF",
"%#	c #0010B0",
"&#	c #FF8700",
"*#	c #FFE5B6",
"=#	c #FF952D",
"-#	c #FDA440",
";#	c #FEE7C6",
">#	c #FC9C39",
",#	c #FFFBF0",
"'#	c #FCC578",
")#	c #FC9E3E",
"!#	c #FB9F34",
"~#	c #FCC677",
"{#	c #FFFCF3",
"]#	c #FFF5F2",
"^#	c #F99420",
"/#	c #FFFDF7",
"(#	c #A4BAE9",
"_#	c #0008AF",
":#	c #0003AB",
"<#	c #1A17B2",
"[#	c #7E8FDC",
"}#	c #0012AF",
"|#	c #FF9C1E",
"1#	c #FFE3C8",
"2#	c #FF7400",
"3#	c #FD8004",
"4#	c #FFF6EB",
"5#	c #FB9128",
"6#	c #FDC98C",
"7#	c #FBA557",
"8#	c #F98C09",
"9#	c #EBEBFA",
"0#	c #B7B7EA",
"a#	c #B6B6EA",
"b#	c #B6B7EA",
"c#	c #B9BAEA",
"d#	c #B9B6EA",
"e#	c #BCBBEB",
"f#	c #CFC6EF",
"g#	c #EFECFA",
"h#	c #465ECC",
"i#	c #0103AA",
"j#	c #1C1CB3",
"k#	c #7E8EDC",
"l#	c #0006AE",
"m#	c #000DAF",
"n#	c #FFD38C",
"o#	c #FFB56A",
"p#	c #FF7300",
"q#	c #FF7700",
"r#	c #FDCC8E",
"s#	c #FDC38D",
"t#	c #FC7C01",
"u#	c #FEC488",
"v#	c #FFF5F0",
"w#	c #FCA45A",
"x#	c #FA8B07",
"y#	c #FFFEF7",
"z#	c #B2BBEB",
"A#	c #0010B2",
"B#	c #000AB2",
"C#	c #000CB2",
"D#	c #091CB6",
"E#	c #8887D7",
"F#	c #9EB2E8",
"G#	c #0006AF",
"H#	c #0008B0",
"I#	c #0016B3",
"J#	c #0525B7",
"K#	c #0723B6",
"L#	c #1C23B6",
"M#	c #000CB0",
"N#	c #0015B1",
"O#	c #FFD5A7",
"P#	c #FFE1BF",
"Q#	c #FFDFBE",
"R#	c #FFDFBF",
"S#	c #FFDCB8",
"T#	c #FF8510",
"U#	c #FF7600",
"V#	c #FD9733",
"W#	c #FFE1C5",
"X#	c #FFE2C5",
"Y#	c #FFE4C9",
"Z#	c #FEE3CA",
"`#	c #FED5AD",
" $	c #FC7701",
".$	c #FC972D",
"+$	c #FECD98",
"@$	c #FFEDDA",
"#$	c #FFFDFD",
"$$	c #FEE0C9",
"%$	c #FDB777",
"&$	c #FA8815",
"*$	c #FA8300",
"=$	c #FA8D0A",
"-$	c #B1BAEB",
";$	c #000EB1",
">$	c #0008B1",
",$	c #0011B2",
"'$	c #0A25B5",
")$	c #EEEEF8",
"!$	c #B6C8EF",
"~$	c #1330B9",
"{$	c #769AD9",
"]$	c #C1DDF0",
"^$	c #E6F4F9",
"/$	c #F9FBFD",
"($	c #FAFCFE",
"_$	c #E6F4FA",
":$	c #B6D1EE",
"<$	c #5E7FD4",
"[$	c #0920B5",
"}$	c #1E28B6",
"|$	c #7E8BDB",
"1$	c #0013B0",
"2$	c #FF8400",
"3$	c #FF7500",
"4$	c #FF7000",
"5$	c #FF7200",
"6$	c #FE7100",
"7$	c #FE7300",
"8$	c #FC7700",
"9$	c #FC7200",
"0$	c #FC6F00",
"a$	c #FC7600",
"b$	c #FC7B06",
"c$	c #FC8311",
"d$	c #FC810F",
"e$	c #FC7A05",
"f$	c #FB8909",
"g$	c #B1BBEB",
"h$	c #000CB1",
"i$	c #072BB5",
"j$	c #EEF0F9",
"k$	c #A7B4E9",
"l$	c #607BCD",
"m$	c #EEF4F9",
"n$	c #DDEDF9",
"o$	c #416BCD",
"p$	c #000AB0",
"q$	c #2429B6",
"r$	c #7E8DDA",
"s$	c #0009AE",
"t$	c #0014B0",
"u$	c #FF7100",
"v$	c #FD6F00",
"w$	c #FC7100",
"x$	c #FD7300",
"y$	c #FC7400",
"z$	c #FB8D0A",
"A$	c #FFFEF9",
"B$	c #B1BCEC",
"C$	c #000BB2",
"D$	c #001DB4",
"E$	c #052DB6",
"F$	c #86A6DC",
"G$	c #5A6CD2",
"H$	c #000AAD",
"I$	c #0011AF",
"J$	c #6E83D0",
"K$	c #FEFEFF",
"L$	c #F8FCFF",
"M$	c #4E75D2",
"N$	c #2330B8",
"O$	c #7E8DDB",
"P$	c #0013B1",
"Q$	c #FF8000",
"R$	c #E6ECF9",
"S$	c #AAC0E9",
"T$	c #AABDE8",
"U$	c #AABCE9",
"V$	c #AABEE9",
"W$	c #AAC2E9",
"X$	c #B2CDEC",
"Y$	c #E6F2FA",
"Z$	c #ABB3E9",
"`$	c #0217B3",
" %	c #0011B0",
".%	c #2544BC",
"+%	c #F7F9FC",
"@%	c #E6E4F9",
"#%	c #7376D6",
"$%	c #363FC3",
"%%	c #4548C5",
"&%	c #8886D7",
"*%	c #F4EBF9",
"=%	c #E5F4FC",
"-%	c #0F30BD",
";%	c #242FB7",
">%	c #7E8CDA",
",%	c #000FB0",
"'%	c #0018B2",
")%	c #FF6F00",
"!%	c #FD7000",
"~%	c #FC7D00",
"{%	c #FC8D09",
"]%	c #F5F7FE",
"^%	c #6C7FD7",
"/%	c #031DB4",
"(%	c #0016B0",
"_%	c #0017B1",
":%	c #0019B1",
"<%	c #9EAFDF",
"[%	c #EEEDFB",
"}%	c #2738C1",
"|%	c #0010B1",
"1%	c #444EC2",
"2%	c #FAF9FD",
"3%	c #7A9FE0",
"4%	c #0013B2",
"5%	c #2A31B9",
"6%	c #0016B1",
"7%	c #FE7000",
"8%	c #FD6E00",
"9%	c #FD8C09",
"0%	c #C4DEF2",
"a%	c #3761C7",
"b%	c #0A26B3",
"c%	c #F1F3F9",
"d%	c #96A6E6",
"e%	c #0316B1",
"f%	c #000BAE",
"g%	c #BCB5E4",
"h%	c #C8E3F6",
"i%	c #0019B4",
"j%	c #2A35B8",
"k%	c #7E8BD9",
"l%	c #FF6D00",
"m%	c #FE7200",
"n%	c #FE6F00",
"o%	c #FD7100",
"p%	c #FC7000",
"q%	c #FD8F0A",
"r%	c #FFFEFA",
"s%	c #F2F2FC",
"t%	c #D1D2F3",
"u%	c #D3D2F3",
"v%	c #D4D4F3",
"w%	c #D5D6F3",
"x%	c #D6D4F3",
"y%	c #EADFF6",
"z%	c #FBF8FD",
"A%	c #F4F9FD",
"B%	c #466DCD",
"C%	c #0223B2",
"D%	c #3551BD",
"E%	c #A8BDEB",
"F%	c #7D95D9",
"G%	c #7187D7",
"H%	c #7186D7",
"I%	c #718AD7",
"J%	c #7189D7",
"K%	c #718FD8",
"L%	c #C0C9EB",
"M%	c #FCFEFF",
"N%	c #042CB9",
"O%	c #2B3BB9",
"P%	c #7E89D9",
"Q%	c #000BAD",
"R%	c #0007AD",
"S%	c #0018B0",
"T%	c #FC6E00",
"U%	c #FD7D00",
"V%	c #FC8C0B",
"W%	c #B0BBEB",
"X%	c #0013AF",
"Y%	c #0015AE",
"Z%	c #0020AF",
"`%	c #142FB4",
" &	c #898AD5",
".&	c #FDFDFE",
"+&	c #DDEAF8",
"@&	c #022EB7",
"#&	c #4E63C4",
"$&	c #193EC0",
"%&	c #323DBA",
"&&	c #FD8E0A",
"*&	c #B0BCEB",
"=&	c #000CAF",
"-&	c #000FAD",
";&	c #0014AD",
">&	c #0012AD",
",&	c #0015AD",
"'&	c #011DAF",
")&	c #ACB2E1",
"!&	c #3465CA",
"~&	c #4E69C5",
"{&	c #204FC4",
"]&	c #3042BB",
"^&	c #7E8AD9",
"/&	c #000AAE",
"(&	c #0005AD",
"_&	c #FF6E00",
":&	c #FF6C00",
"<&	c #FD8F0C",
"[&	c #B0BAEA",
"}&	c #0008AC",
"|&	c #000CAC",
"1&	c #000AAB",
"2&	c #000BAC",
"3&	c #0007AB",
"4&	c #0009AD",
"5&	c #001CAF",
"6&	c #8294D6",
"7&	c #4C72D0",
"8&	c #3D5AC2",
"9&	c #6371D4",
"0&	c #333AC0",
"a&	c #3433BF",
"b&	c #3533C0",
"c&	c #3536C1",
"d&	c #3638C1",
"e&	c #3C39C1",
"f&	c #3836C1",
"g&	c #3B37C1",
"h&	c #383BC2",
"i&	c #3E3CC2",
"j&	c #3B3CC2",
"k&	c #061EB6",
"l&	c #3344BC",
"m&	c #7E84D8",
"n&	c #FD7F00",
"o&	c #FD8E0C",
"p&	c #B0B7EA",
"q&	c #0008AB",
"r&	c #000CAB",
"s&	c #000DAC",
"t&	c #0013AE",
"u&	c #032DB2",
"v&	c #AFC0E3",
"w&	c #4C6FCF",
"x&	c #143CB8",
"y&	c #FCFAFD",
"z&	c #7086D8",
"A&	c #3339BA",
"B&	c #7E89D8",
"C&	c #FE6E00",
"D&	c #FE7E00",
"E&	c #FD900B",
"F&	c #B1BBEA",
"G&	c #000EAF",
"H&	c #000EAC",
"I&	c #0016AD",
"J&	c #0010AD",
"K&	c #0012AE",
"L&	c #001EB0",
"M&	c #3E6AC4",
"N&	c #F7FAFC",
"O&	c #FBFCFF",
"P&	c #1D44C0",
"Q&	c #0126B2",
"R&	c #CACEEC",
"S&	c #DAE4F6",
"T&	c #0F21B7",
"U&	c #0212B1",
"V&	c #96A3E0",
"W&	c #AAB8E7",
"X&	c #AAB5E7",
"Y&	c #ABB5E7",
"Z&	c #7F95DD",
"`&	c #383DBB",
" *	c #7E86D8",
".*	c #0006AC",
"+*	c #FE960B",
"@*	c #D4DEF4",
"#*	c #7188D6",
"$*	c #7186D4",
"%*	c #7188D4",
"&*	c #718AD5",
"**	c #7186D5",
"=*	c #718AD6",
"-*	c #789BDA",
";*	c #AAC7E8",
">*	c #FBFDFE",
",*	c #AFBCEC",
"'*	c #0021B4",
")*	c #001DB1",
"!*	c #5C68C9",
"~*	c #CAD5F1",
"{*	c #4059C8",
"]*	c #001FB5",
"^*	c #001CB5",
"/*	c #2048BF",
"(*	c #9EB6E4",
"_*	c #7186D9",
":*	c #3C3FBB",
"<*	c #7F8DD9",
"[*	c #000CAE",
"}*	c #001BB0",
"|*	c #FC6C00",
"1*	c #FB7000",
"2*	c #FB6D00",
"3*	c #FB6F00",
"4*	c #FB6C00",
"5*	c #FE900C",
"6*	c #E3E7F9",
"7*	c #1B3EBF",
"8*	c #001BB2",
"9*	c #021FB1",
"0*	c #BABBE7",
"a*	c #FAFDFE",
"b*	c #EBF7FC",
"c*	c #BCC5EF",
"d*	c #0211B2",
"e*	c #3A42BC",
"f*	c #7E88D8",
"g*	c #FE8D0A",
"h*	c #D4DAF5",
"i*	c #2750C4",
"j*	c #001FB3",
"k*	c #001AB2",
"l*	c #0E1FB4",
"m*	c #AFA9E1",
"n*	c #B6BFEC",
"o*	c #0D19B6",
"p*	c #3D46BB",
"q*	c #7E87D8",
"r*	c #000DAE",
"s*	c #001FB0",
"t*	c #FE930D",
"u*	c #F0EEFB",
"v*	c #BAC6ED",
"w*	c #6481D6",
"x*	c #0630B9",
"y*	c #0027B4",
"z*	c #001CB3",
"A*	c #001BB3",
"B*	c #0012B1",
"C*	c #011CB3",
"D*	c #525FC9",
"E*	c #BBC2EB",
"F*	c #F9F7FD",
"G*	c #FBFBFE",
"H*	c #C5C7EF",
"I*	c #5367CF",
"J*	c #0113B2",
"K*	c #414CBE",
"L*	c #0010AF",
"  . + @ # @ $ % & * * * * * = - ; > , ' ) ! ~ { ] ^ / / ~ ( _ ! ( ( : < [ } | 1 2 2 3 3 4 5 6 7 8 9 5 0 a 8 6 a 7 7 8 b 7 8 8 6 6 a 9 c c d e d c f d d d g h i h j k l m n ",
"o p q @ @ r s t * * * * * * u ; v w x y z A z B ! C D B z E F z G ! ^ H I J K L M N N N O N O O P P P P P N P P P P P P P P Q P P P P R R R R S R T 0 a 0 0 7 8 T 8 c U g V ",
"W X Y Z `  ...+.* * * * * * @.#.> $.%.&.*.=.y y A -.F y D ;.B ! F B -.^ >.J ,.'.'.M N N P P P P R P P P P P R N R P N N P P P P N N P R 0 R P R R R 0 R R 0 0 0 0 5 8 ).!.~.",
"  Z q {.@ ].^./.* * * * * * * (.A A _.;.*.x w E ;.F :.D -.;.<.D ! H ^ [.}.|.1.2.L '.M '.M N M M M M M M M N N N M N N N M '.N N M 3.N N P P N N P P P P P N R R R Q R 8 7 4.",
"o 5.6.7.@ 8.9.* * * 0.a.* * * b.) *.c.E d.:.F <.;.*.' D e.f.g.h.i.C j.k.l.m.n.2.o.'.'.M M N N N N N N N P N N N P P N N M N N M M M M M N N N N N N N N N N P P P P Q 0 d p.",
"X 6.Y {.@ q.r.* * * s.t.* * * u.v.' _.;.y c.x c., w.x.y.* * * * z.A.B.C.D.E.F.G.o.L L '.'.'.N N M M N N N N N N P R N M N M '.'.M M '.'.M N M M M M M N N P P P R Q R 0 e H.",
"o I.5.J.8.K.* * * u.L.M./.* * * N.O.*.w x w *.D P.Q.* * * * * * * * * R.S.T.U.2.L 3.L '.M M N N P O P R N N P P P P P N N M N M M M S N '.'.M M N N P N N P N P R Q 4 a V.4.",
"W.X.q Y.8.Z.* * * `. +.+++* * * @+#+' y w w ( $+%+* * * * * * * * * * * &+*+=+G.o.'.'.'.L M N N N N 1 N N N N N N N N M M M N M 3.L '.'.L '.'.L '.M M S S N N P R P P 0 -+;+",
". p + X.>+%+* * * ,+- ..'+* * * * )+O.w w D !+~+* * * {+]+^+/+(+_+* * * * :+<+o.o.'.'.'.'.M 3.M M M N N N M P N N N N M N N N N M '.'.M '.L L L [+M M S S O M N N N 1 R 4 }+",
"W o |+1+2+* * * 3+4+5+6+7+8+* * * 9+0+' w ; a+* * * * b+] , D c+d+e+* * * f+g+o.h+M 3.N '.M N N N N N N M N N N P P P N M M M '.L L L o.L '.'.'.'.M M M P M M N N N 1 P 5 i+",
". j+k+l+m+* * * n+o+p+6+q+r+* * * s+t+) , u+v+* * * w+x+! -.-._ ~ y+z+A+B+C+D+E+E+F+M G+3.3.M M M M M N P P P P N P R O M '.'.M M '.'.M '.'.'.M M '.M N N S S S P 1 4 Q a H+",
"j+. I+J+* * * * K+s > - 5+L+* * * * M+N+O.O+P+* * * Q+_ ~ ' ~ <.-.! c+^ R+S+T+L '.'.N M M S M P P N N P N P P R 0 R P P S M N N M N M M M M M M M N M M M M N U+N P P O V+W+",
"X+X X Y+* * * Z+`+ @.@+@@@#@$@* * * %@&@O.*@=@* * * -@A &.$.y c.w -.F / ;@>@,@o.L '.M M M N M N R P R P P P Q P P R P N N N M M M M M '.M M M M M N M M M M N M 3.N P Q '@)@",
"  . !@/.* * * * * * * * * * * * * * * ~@' {@* * * * ]@w %.^@;.E ;.y -.! /@(@_@'.'.N N Q Q P Q P R R R R 0 R R R R R P P N N N N M '.'.'.'.M M M M N M N P P P N N P N P V+:@",
"j+j+<@* * * * * * * * * * * * * * * * [@}@|@1@* * * 2@^@v v A %.' _ x+3@[ 4@5@6@7@H+H+-+7 }+b 7 c 7 7 8 7 0 0 R R R P N N N N M M M '.M M M M M M P N M O Q 8@8 5 a P R 9@0@",
"a@b@c@* * * * * * * * * * * * * * * * d@e@f@g@* * * h@> &.$.$.; 6+i@j@k@l@m@n@o@p@p@q@q@r@r@q@s@s@t@u@v@w@x@y@7 0 R P P N P P P N M M M N N N N N P P Q z@A@B@B@C@D@7 8 E@)@",
"F@G@* * * * H@I@J@K@L@M@N@O@P@Q@* * * * R@S@T@* * * * U@p+V@W@X@Y@%+* * * Z@`@* * * * * * * * * * * * * *  #.#+#6 4 O 5 N S P N N N N M P N N N P N S Q @#* * * * ##$#-+7@%#",
"&#*#* * * * =#+ p p 5.Z p #  .-#* * * * ;#> >#%+* * * ,#'#)#!#~#{#* * * ]#^#/#* * * * * * * * * * * * * * * * (#_#8 R O P O P Q R N N N S N M N N R P :#<#* * * * [#$#E@H+}#",
"|#1@* * * 1#|+X+2#5.Y 5.I.` {.3#4#* * * u.5#V@6#* * * * * * * * * * * u.7#8#P+* * * 9#0#a#b#c#d#e#f#g#* * * * * h#3 Q Q P P a 0 R 4 R P Q P i#P N N P 4 j#* * * * k#l#d E@m#",
"n#* * * * o#+ X.p X+Z p#q#k+Y.@ r#* * * * s#W@t#u#Q.* * * * * * * * v#w#u+x#y#* * * z#A#4.B#4.C#~.A#D#E#* * * * F#$#8@5 a a 8 G#H#I#J#K#;+5 Q Q R 8@4 9 L#* * * * ##M#e }+N#",
"O#P#Q#R#S#T#k+X.I.|+p#q#U#5.6.X.V#W#X#Y#Z#`# $s X@.$+$@$u.* * #$$$%$&$q+*$=$P+* * * -$;$$#H#V.p.>$>$,$'$)$* * * !$M#V+l#5 -+~${$]$^$/$($_$:$<$[$5 6 6 E@}$* * * * |$W+l#i+1$",
"2$j+X X X+q#2#o X+3$I.4$5$` 6$7$` 8$7.@ {.9$0$0$9$].a$8$b$c$d$e$8$&.v V@> f$P+* * * g$h $#V.e !.j h$N#i$j$* * * k$E@8@8@M#l$m$* * * * * * * * n$o$p$l#}+q$* * * * r$H+$#s$t$",
". q#q#X+q#2#3$5$6$4$5$u$5$p#u$7$` ` v$7.w$7.` 7.7.` v$x$7.y$y$@ r a$].r V@z$A$* * * B$4.,$p$C$4.m D$E$F$* * * * G$)@H$I$J$K$* * * * * * * * * * L$M$_#}+N$* * * * O$i+b _#P$",
"Q$o U#j+q#U#|+3$2#2#3$|+q#3$5.Z q Y.@ @ q ` 7.` V@Y.q {.` @ V@w$V@5+V@s s f$P+* * * R$S$T$U$U$V$W$X$Y$* * * * Z$`$ %%#.%+%* * * @%#%$%%%&%*%* * * =%-%%#;%* * * * >%p$g ,%'%",
"X |+|+4$3$5$U#p#)%6$7$q#p#6$7$5.6$x$I.q !%@ {.{.7${.w${.v$q y$a$y$].J.Y.~%{%A$* * * * * * * * * * * * * * ]%^%/%(%_%:%<%* * * [%}%|%,%;+'%1%2%* * * 3%4%5%* * * * >%}+_#;$6%",
"Q$U#u$U#2#5$5$U#p#2#3$5$U#5.2#5$I.Y I.7$7$7%{.7.{.` q 8%a$`  .Y.J.@ @ {.W@9%A$* * * * * * * * * * * * * * * 0%a%_%:%b%c%* * * d%e%-+G#$#f%N#g%* * * h%i%j%* * * * k%s$E@m#1$",
"|+o |+q#2#X+4$l%3$m%6$Y U#p#Y m%n%m%I.Y o%7.7.v$r p%0$r w$w$q @ x$x$` J.s q%r%* * * s%t%u%u%v%w%x%y%z%* * * * A%B%C%D%* * * * E%F%G%H%I%J%K%L%* * * M%N%O%* * * * P%Q%9@R%S%",
"X X+U#5$3$p#u$p#3$7$6.U#u$4$p#u$7$o%6$o%{.7.x$x$].9$9$w$T%].].q q  .# Z U%V%Q.* * * W%A#p.M#:@X%Y%Z%`% &.&* * * +&@&#&* * * * * * * * * * * * * * *  #$&%&* * * * P%9@V+H$X%",
"  X+o X+U#q#. X+q#q#5.7%5$U#U#4$I.I.5.@ m%7.{.!%@ 9$o%w$r w$].` @ k+Y + 8.&&r%* * * *&A#=&I$H$-&;&>&,&'&)&* * * * !&~&* * * * * * * * * * * * * * * * {&]&* * * * ^&/&(&H$X%",
"U#2#U#3$5$5$3$p#4$p#2#u$3$_&:&u$7%I.7%m%m%7.v${.7.!%x$p%w$o%r x$I.I.Y X.+ <&Q.* * * [&%#9@}&|&1&2&3&4&5&6&* * * * 7&8&* * * * 9&0&a&b&c&d&e&f&g&h&i&j&k&l&* * * * m&(&8@R%:@",
". |+5$2#u$u$U#u$2#)%5$p#u$6$m%m%6$6$m%7.@ !%` v$r w$w$T%9$!%r a$` Y Y 2#n&o&Q.* * * p&W+}&q&r&s&-&H$t&u&v&* * * * w&x&y&* * * z&p._#-+!._#p.H#V.p.M#M#W+A&* * * * B&9@(&7@1$",
"X q#U#3$p#p#u$p#3$7$2#u$m%I.m%n%o%x$7%C&v$p%v$o%r 9$0$p%w$w$y$y$7.q k+D&# E&r%* * * F&G&2&H&I&J&K&(%L&M&N&* * * O&P&Q&R&* * * S&T&_#$#E@_#U&V&W&X&Y&Z&0@`&* * * *  *8@8@.*}#",
"X o q#q#p#q#3$u$3$q#U#3$X+7$7$Z Y Y 7$x$` 7.r 9$r r a$w$9$y$%.w$y$@ 5.X   +*Q.* * * @*#*$*%*&***=*-*;*>** * * * ,*'*)*!** * * * ~*{*]*^*/*(** * * * _* %:** * * * <*I$9@[*}*",
"|+3$U#4$5$p#p#u$u$U#4$4$4$I.7%n%m%o%6$v$8%T%r |*p%^@1*2*3*2*1*^@4*y$` I.X.5*Q.* * * * * * * * * * * * * * * * 6*7*8*1$9*0** * * * * a*b** * * * * c*d*:@e** * * * f*4&H+4&I$",
"j+X+q#2#3$3$Z U#U#3$p#2#q#I.6.6.].7.x$` w$].v 1*^@_.c.%.;._.F w $.v 8$6.+ g*r%* * * * * * * * * * * * * * * h*i*j*k*,%1$l*m** * * * * * * * * * n*o*W+}#p** * * * q*r*H$J&s*",
"W   . X j+. j+j+. o . X+q#o 5.# Y.{.W.# V@V@; v A A ' O.A ' O., &.- 8$X.W.t*/.* * * * * * * * * * * * u*v*w*x*y*z*A*N#;$B*C*D*E*F** * * * G*H*I*J*)@M#_%K** * * * f*r*G&L*)*"};
